<?xml version="1.0" encoding="UTF-8"?>
<svg width="18px" height="23px" viewBox="0 0 18 23" version="1.1" xmlns="http://www.w3.org/2000/svg" xmlns:xlink="http://www.w3.org/1999/xlink">
    <!-- Generator: Sketch 46.2 (44496) - http://www.bohemiancoding.com/sketch -->
    <title>docs copy</title>
    <desc>Created with Sketch.</desc>
    <defs></defs>
    <g id="Process" stroke="none" stroke-width="1" fill="none" fill-rule="evenodd">
        <g id="Messenger-Create-New-Doc" transform="translate(-915.000000, -605.000000)" fill-rule="nonzero" fill="#4342E6">
            <g id="docs-copy" transform="translate(915.000000, 605.000000)">
                <polygon id="Shape" points="11.9902836 0.438044776 11.9902836 5.98052239 17.5327612 5.98052239"></polygon>
                <path d="M11.2427015,7.47568657 C10.83,7.47568657 10.4951194,7.14080597 10.4951194,6.72810448 L10.4951194,0 L0.776776119,0 C0.364074627,0 0.0291940299,0.334880597 0.0291940299,0.74758209 L0.0291940299,22.1778358 C0.0291940299,22.5905373 0.364074627,22.9254179 0.776776119,22.9254179 L17.2232239,22.9254179 C17.6359254,22.9254179 17.970806,22.5905373 17.970806,22.1778358 L17.970806,7.47568657 L11.2427015,7.47568657 Z M11.2815119,13.032774 L15,19.6279135 L12.7080335,19.6279135 L11.2245408,19.6279135 L3,19.6279135 L5.97202235,14.3566394 C4.75488868,13.8853942 3.89727419,12.6827692 3.89727419,11.2848702 C3.89727419,9.47357692 5.33873698,8 7.11055617,8 C8.88237535,8 10.3238381,9.47357692 10.3238381,11.2848702 C10.3238381,12.190149 9.9637264,13.0383558 9.33852535,13.6517404 L10.1355287,15.0653462 L11.2815119,13.032774 Z" id="Shape"></path>
            </g>
        </g>
    </g>
</svg>